<svg width="1793" height="698" viewBox="0 0 1793 698" fill="none" xmlns="http://www.w3.org/2000/svg">
<path d="M925.427 0H922.52C924.23 16.4143 925.427 43.6004 925.427 69.7607C925.427 92.1594 924.572 113.703 922.52 127.211C926.282 126.527 930.727 126.185 935.344 126.185C939.961 126.185 944.577 126.527 948.339 127.211C946.287 110.967 945.432 95.408 945.432 81.2165C945.432 74.5482 945.603 68.0509 945.945 62.0665C949.555 63.7972 953.407 65.6851 957.615 67.7469C967.956 72.8145 980.441 78.9324 996.727 86.346C1023.03 100.188 1054.3 119.978 1068.04 128.669L1068.07 128.684C1069.16 129.374 1070.13 129.993 1070.99 130.534C1071.33 130.75 1071.66 130.953 1071.96 131.143H1074.18C1072.64 111.822 1071.79 92.1594 1071.79 73.0094C1071.79 48.9009 1072.98 25.4763 1075.72 3.93259C1072.13 4.61652 1067.34 4.95848 1062.73 4.95848C1057.94 4.95848 1053.32 4.61652 1049.9 3.93259C1051.78 22.2277 1052.3 34.0254 1052.3 44.2844C1052.3 51.9892 1052.05 58.7052 1051.76 66.4291L1051.74 66.9915C1051.7 68.1728 1051.66 69.3785 1051.61 70.6156C1047.76 68.8267 1043.66 66.8717 1038.95 64.6281L1038.95 64.6271L1038.94 64.6227L1038.93 64.6201L1038.93 64.6182C1031.94 61.2882 1023.62 57.3224 1012.8 52.3205C976.068 33.5316 937.158 8.20736 925.93 0.900187L925.598 0.683928L925.427 0Z" fill="white"/>
<path d="M627.33 124.304C626.133 126.698 625.108 127.211 621.346 127.211C568.443 127.211 555.346 126.603 549.313 126.323C547.508 126.239 546.335 126.185 544.917 126.185C536.207 126.185 526.332 126.518 516.918 126.835C512.841 126.973 508.85 127.107 505.078 127.211L505.166 126.411C506.525 114.025 508.327 97.6038 508.327 64.8022C508.327 28.3901 507.003 18.4594 505.636 8.21105L505.636 8.20887L505.636 8.20779C505.45 6.81128 505.263 5.40881 505.078 3.93259C507.537 4.04189 510.066 4.18612 512.621 4.33179C518.058 4.64187 523.61 4.95848 528.845 4.95848C534.08 4.95848 539.631 4.64188 545.069 4.33179C547.623 4.18612 550.152 4.04189 552.611 3.93259C552.427 5.40883 552.24 6.81131 552.053 8.20784L552.053 8.21047C550.687 18.4589 549.363 28.3899 549.363 64.8022C549.363 85.3201 550.046 99.3406 550.73 109.942H603.906C618.61 109.942 624.937 109.429 639.641 93.8692L642.206 95.0661L627.33 124.304Z" fill="white"/>
<path fill-rule="evenodd" clip-rule="evenodd" d="M780.056 4.34833C783.245 4.12805 786.075 3.93259 788.09 3.93259C798.007 3.93259 802.11 5.12946 806.214 15.2174C810.709 23.076 814.84 30.3856 818.775 37.348L818.78 37.3572L818.78 37.3583L818.782 37.3607L818.783 37.363L818.784 37.3651C836.248 68.2655 849.848 92.3302 874.265 127.211C862.467 126.527 855.286 126.185 848.275 126.185C841.094 126.185 834.084 126.527 822.457 127.211C818.353 117.465 813.908 107.719 809.12 98.1437H727.049C721.065 108.574 715.935 118.662 712.003 127.211C708.583 126.527 702.257 126.185 695.93 126.185C689.604 126.185 683.107 126.527 679.858 127.211C703.795 97.8018 738.676 46.3362 760.22 12.8237C756.629 8.72009 752.012 7.69418 740.728 6.49731V3.93259C744.596 3.93259 749.286 4.19195 753.95 4.44986C758.562 4.70488 763.147 4.95848 766.888 4.95848C771.224 4.95848 775.939 4.63271 780.056 4.34833ZM736.966 80.7036H800.229C791.167 63.7763 781.079 46.5071 769.966 28.212L768.886 29.8896C759.488 44.4879 747.831 62.5957 736.966 80.7036Z" fill="white"/>
<path d="M1187.97 4.70507C1200.16 4.40129 1218.98 3.93259 1259.19 3.93259C1261.42 3.93259 1262.1 4.7875 1262.61 6.83928L1267.57 30.2638L1265.35 30.9478C1260.73 23.0826 1253.38 21.2018 1242.44 21.2018H1177.98C1177.87 24.9703 1177.72 28.7572 1177.57 32.5566V32.5919C1177.26 40.3307 1176.95 48.1209 1176.95 55.9112H1212.52C1220.89 55.9112 1237.65 55.0562 1244.32 53.5174C1243.64 57.9629 1243.64 61.0406 1243.64 64.6312C1243.64 68.2219 1243.64 70.9576 1244.32 75.5741C1237.65 73.6933 1220.89 73.1804 1212.52 73.1804H1176.95C1176.95 81.3599 1177.25 89.464 1177.56 97.5929L1177.56 97.5986C1177.71 101.702 1177.86 105.812 1177.98 109.942H1234.92C1252.36 109.942 1260.9 107.89 1274.58 93.3562L1276.98 94.5531L1262.96 123.62C1261.25 127.04 1260.73 127.211 1256.63 127.211C1218.79 127.211 1200.55 126.755 1188.39 126.451C1182.31 126.299 1177.75 126.185 1173.02 126.185C1164 126.185 1153.74 126.514 1143.91 126.83C1139.58 126.97 1135.33 127.106 1131.3 127.211L1131.39 126.412V126.41C1132.75 114.024 1134.55 97.603 1134.55 64.8022C1134.55 28.3897 1133.22 18.4591 1131.86 8.21068L1131.86 8.18786L1131.85 8.17891L1131.85 8.17526L1131.85 8.17385C1131.67 6.78885 1131.48 5.39653 1131.3 3.93259C1135.27 4.03575 1139.48 4.17003 1143.77 4.30727C1153.72 4.62495 1164.17 4.95848 1173.36 4.95848C1177.79 4.95848 1182.12 4.85073 1187.97 4.70507Z" fill="white"/>
<path fill-rule="evenodd" clip-rule="evenodd" d="M309.172 106.514C309.839 133.187 311.617 149.191 313.173 161.416C309.976 161.274 306.689 161.087 303.369 160.897L303.368 160.897C296.299 160.494 289.082 160.083 282.276 160.083C275.471 160.083 268.254 160.494 261.186 160.897L261.183 160.898C257.863 161.087 254.576 161.274 251.38 161.416L251.494 160.376C253.261 144.275 255.603 122.927 255.603 80.2853C255.603 32.9493 253.882 20.0394 252.105 6.71651C251.863 4.89973 251.62 3.07527 251.38 1.15479C255.804 1.2909 260.457 1.46869 265.198 1.64987C275.943 2.06044 287.145 2.48844 297.169 2.48844C303.954 2.48844 315.957 2.09216 326.877 1.73163C335.99 1.43076 344.349 1.15479 348.293 1.15479C427.645 1.15479 452.763 16.4919 452.763 53.8344C452.763 91.1769 427.645 106.514 348.293 106.514H309.172ZM394.304 53.8344C394.304 35.6077 385.191 23.6047 348.293 23.6047H310.283C309.616 34.9409 308.95 50.278 308.95 83.8418H348.293C385.191 83.8418 394.304 71.8388 394.304 53.8344Z" fill="white"/>
<path d="M1439.95 161.411C1438.17 145.185 1435.95 123.846 1435.95 80.28C1435.95 50.7172 1436.39 34.7132 1437.28 23.3771H1485.07C1495.3 23.3771 1502.19 27.8227 1510.19 39.3811L1513.3 38.2697L1507.08 0.482605H1503.52C1499.07 1.14944 1492.85 1.14944 1486.4 1.14944H1331.25C1324.81 1.14944 1319.47 0.927153 1314.36 0.482605H1310.81L1304.36 38.2697L1307.69 39.3811C1315.7 27.8227 1322.59 23.3771 1332.81 23.3771H1380.82C1381.71 34.7132 1382.38 50.7172 1382.38 80.28C1382.38 122.92 1380.04 144.267 1378.27 160.369V160.371L1378.16 161.411C1381.35 161.269 1384.63 161.082 1387.95 160.893L1387.95 160.892L1387.96 160.892C1395.03 160.489 1402.25 160.077 1409.05 160.077C1415.86 160.077 1423.07 160.489 1430.14 160.892L1430.15 160.892L1430.15 160.893C1433.47 161.082 1436.75 161.269 1439.95 161.411Z" fill="white"/>
<path fill-rule="evenodd" clip-rule="evenodd" d="M790.5 177.952C788.957 178.209 787.539 178.565 786.242 178.99C715.717 179.612 657.146 194.993 614.758 220.616C614.86 224.854 613.473 228.254 612.377 229.873C610.072 229.244 607.187 228.43 604.087 227.518C565.684 254.095 542.888 289.962 539.574 330.985C538.505 333.846 537.364 336.349 536.336 338.605C532.623 346.747 530.378 351.673 538.268 358.645C539.042 359.329 539.744 359.934 540.38 360.475C548.648 422.816 598.248 463.505 674 481.814C681.216 483.559 684.977 485.327 689.019 487.229C695.06 490.07 701.73 493.208 721.5 497C753 500 792.444 496.047 838.475 489.67C879.918 483.928 915.647 472.301 944.606 456.247L946.076 455.432C948.951 453.839 949.882 453.324 950.789 452.771C951.224 452.506 951.653 452.233 952.287 451.83C952.909 451.433 953.729 450.911 954.946 450.148C964.468 444.174 973.502 435.756 981.739 426.401C978.759 420.005 980.217 414.017 981.493 411.585C984.413 412.041 988.248 412.68 992.289 413.414C1016.5 383.5 1018.78 368.525 1026.5 356.5C1039.45 336.317 1050.5 324.5 1071 313.5C1057.5 309.5 1029.86 302.739 1019.5 283C1019.21 282.44 1019.12 281.951 1019.01 281.608C1019.1 281.678 1018.92 281.148 1018.8 280.861C1018.68 280.57 1018.63 280.528 1019.01 281.608C1018.92 281.547 1018.63 281.031 1017.89 279.5C989.03 219.579 908.107 185.204 816.707 179.742C816.116 179.249 815.398 178.658 814.5 177.952C809.235 173.815 805.101 174.77 798.269 176.349C796.018 176.869 793.474 177.456 790.5 177.952ZM697.697 277.43C682.98 302.855 673.829 361.486 676.545 405.476C678.109 406.26 680.269 406.467 683.352 406.35C689.865 406.102 693.031 409.74 694.028 418.62C695.02 427.45 700.276 434.28 708.495 437.42C712.504 438.951 716.013 441.545 718.671 444.605C737.317 453.648 759.547 458.424 784.548 458.424C855.539 458.424 912.169 419.44 912.169 337.369C912.169 334.724 912.107 332.116 911.985 329.543C895.096 313.094 852.215 292.53 833.101 292.53C793.002 292.53 755.255 360.537 780.578 387.141C803.879 411.62 838.811 377.432 826.087 342.596C820.627 327.643 831.606 327.666 843.436 342.635C850.963 352.167 849.175 359.675 833.446 384.647C821.426 403.735 816.075 420.206 819.087 428.868C823.536 441.674 822.862 441.781 809.823 430.378C802.083 423.609 789.843 415.863 782.616 413.168C770.017 408.463 741.278 353.068 740.941 332.84C740.721 319.65 780.659 294.74 823.991 281.034C833.896 277.903 841.077 275.667 846.964 274.563H860.983C868.67 276.469 876.407 281.958 890.381 292.06C897.569 297.256 903.734 301.859 909.018 306.115C899.301 260.394 867.68 229.415 822.094 218.556C823.294 222.686 824.399 226.65 825.351 230.187L817.092 257.723C812.503 257.723 798.921 254.969 781.301 243.955C759.277 230.187 717.98 238.448 706.968 257.723C706.624 258.324 706.268 258.875 705.901 259.376L704.215 263.23C702.307 265.096 701.809 266.821 701.145 269.121C700.537 271.226 699.791 273.813 697.697 277.43Z" fill="white"/>
<path d="M1082.56 319C1082.56 319.878 1082.56 335.605 1082.56 336.496C1082.56 353.63 1082.26 371.27 1081.95 389.015C1081.64 406.969 1081.33 425.029 1081.33 442.779C1081.33 471.215 1081.01 489.836 1079 510C1077.83 516.064 1075.21 525.966 1068.5 531C1068.3 531.152 1068.1 531.301 1067.92 531.448C1065.55 533.108 1063.45 534.704 1061.82 536.08C1059.86 537.28 1057.68 538.284 1055.4 539.339C1052.85 540.514 1050.18 541.751 1047.5 543.39C1036.06 550.391 1027.88 553.657 1020.66 556.536C1020.27 556.691 1019.88 556.846 1019.5 557C1013.02 558.866 1004.5 562 1004 564.5C1003.9 565.012 1003.71 565.562 1003.53 566.105C1002.96 567.788 1002.41 569.393 1004.5 569.5C1009.79 569.773 1021.83 566.201 1029.5 563C1032.72 561.654 1035.57 560.389 1038.09 559.265C1045.32 556.045 1049.95 553.983 1053.5 554.5C1058.12 555.174 1065.08 551.129 1068.4 547.431C1069.09 546.657 1071.4 545.149 1074.41 543.39C1068.25 567.9 1049.82 582.365 1028 599C1026.24 600.199 1024.53 601.382 1022.84 602.547C1013.87 608.74 1005.6 614.451 995.5 619.5C991 621.07 985.834 623.112 982.541 624.413C982.16 624.563 981.805 624.704 981.478 624.833C974.849 627.445 970.182 628.5 962.5 628.5C958.881 628.5 957.685 629.605 955.705 631.435C953.481 633.491 950.268 636.46 941.527 639.804C925 646.126 905.01 652.3 895.447 655.065C877.819 660.159 864.843 663.77 861.004 664.651C860.663 664.729 860.205 664.828 859.658 664.947C855.242 665.906 845.018 668.125 844 670.5C843.697 671.208 843.168 671.977 842.663 672.712C840.671 675.613 839.039 677.989 853 674C855.878 673.605 858.275 673.426 860.607 673.251C864.92 672.929 869.01 672.623 875.5 671C880.858 669.661 885.294 668.859 889.851 668.036C896.539 666.828 903.489 665.573 914 662.5C928.609 658.23 932.822 659.925 936.401 661.432C940.784 663.278 942.716 664.091 956.452 650.731C957.682 646.829 965.22 645.567 970.182 648.433C974.637 651.007 979.794 646.041 984.766 641.253C986.162 639.908 989.054 638.763 991.581 637.761C993.2 637.12 994.67 636.537 995.5 636C998.98 634.661 1002.28 632.927 1005.4 631.283C1008.56 629.622 1011.54 628.054 1014.36 627.077C1017.93 625.842 1021.2 623.809 1025.38 621.205L1025.39 621.205L1025.39 621.204L1025.39 621.203C1028.48 619.278 1032.08 617.042 1036.67 614.588C1051.94 607.696 1066.81 600.586 1080.87 592.896C1086.59 591.087 1093.55 589.263 1097.27 590.5C1103.27 592.5 1106.27 586 1107.77 582.5C1108.41 581.003 1109.6 579.231 1110.87 577.341L1110.87 577.339C1111.97 575.709 1113.12 573.99 1114.03 572.284C1155.2 542.749 1183.51 503.545 1183.51 441.548C1183.51 424.718 1182.91 407.588 1182.3 390.257V390.22C1181.68 372.488 1181.05 354.544 1181.05 336.496C1181.05 321.956 1181.03 309.628 1181.01 299.113C1180.99 283.933 1180.98 272.529 1181.03 263.695C1183.75 257.926 1186.47 251.72 1188.24 247.522C1187.02 246.437 1184.6 244.986 1181.38 244.269C1181.67 237.648 1182.17 233.487 1183 229C1183 229 1184.5 222 1190 213C1192.45 208.987 1197.69 205.372 1202.6 201.977C1208.71 197.758 1214.33 193.879 1213.5 190C1211.5 190.089 1206.64 190.282 1200.86 190.512C1189.58 190.959 1174.79 191.546 1170.74 191.777C1145.31 193.228 1105 193.281 1094.5 193.281C1084 193.281 1068 192.5 1055 191.777C1055.91 198.029 1060.29 201.009 1065.06 204.249C1070.75 208.12 1076.99 212.362 1078.5 223C1081.28 242.541 1082.52 291.819 1082.56 313C1082.56 314.484 1082.56 319 1082.56 319Z" fill="white"/>
<path d="M1483.04 180.977L1487.18 195.612L1502.15 181.491C1585.54 185.57 1660.85 213.582 1696.85 263C1700.39 267.86 1704.05 273.175 1707.74 278.531C1713.54 286.949 1719.41 295.472 1725 302.5C1740.8 322.353 1792.5 334 1792.5 334C1792.5 334 1726 343.5 1712.5 371C1696.95 402.669 1673 431.234 1638.87 453.011C1638.48 457.41 1636.59 460.742 1635.25 462.244C1633.32 461.429 1630.96 460.413 1628.42 459.287C1588.33 481.898 1535.54 495.715 1467.64 495.715C1465.51 495.715 1463.38 495.699 1461.25 495.667C1456.55 480.675 1451.49 466.301 1447.38 458.385C1456.03 459.735 1465.13 460.424 1474.62 460.424C1518.11 460.424 1556.21 445.793 1579.21 415.588C1577.5 414.426 1576.43 411.416 1575.85 406.53C1575.05 399.862 1576.03 397.797 1581.61 394.343C1584.69 392.434 1586.15 390.779 1587.31 387.869C1588.17 385.719 1589.58 383.528 1590.43 383C1591.63 382.254 1595.68 375.988 1599.37 369.66C1601.25 360.309 1602.24 350.215 1602.24 339.369C1602.24 263.042 1550.95 216.261 1473.8 216.261C1404.15 216.261 1346.36 255.532 1346.18 337.341C1350.07 346.864 1354.97 359.773 1354.7 362.814C1354.57 364.254 1352.91 368.827 1350.59 374.596C1361.83 418.448 1393.89 447.411 1439.57 456.963C1439.52 457.266 1439.48 457.584 1439.44 457.917C1437.54 473.067 1431.05 485.464 1419.08 492.885C1315.6 480.629 1229.23 428.863 1229.23 343.472C1229.23 250.321 1327.3 180.971 1480.78 180.971L1482.31 180.973C1482.55 180.974 1482.79 180.975 1483.04 180.977Z" fill="white"/>
<path d="M394.494 335.675C398.166 353.119 403.399 371.877 409.348 393.2C410.249 396.428 411.204 399.78 412.181 403.212L412.183 403.217C418.382 424.977 425.5 449.96 425.5 467C425.5 476.681 417.582 480.79 411.038 484.187C406.428 486.579 402.5 488.617 402.5 492C432 488.5 457.5 486.5 490.5 486.5C493.983 486.5 497.573 486.49 501.246 486.48H501.263C523.953 486.419 549.837 486.349 573.5 488.5C573.5 484.56 566.067 481.226 558.122 477.663C549.935 473.991 541.204 470.075 539.5 465C531.131 440.077 504.561 355.931 480.084 274.434C482.442 269.35 484.701 264.176 486.241 260.522C484.499 258.97 480.295 256.669 474.821 256.839C466.829 230.01 459.229 203.965 452.764 180.971H446.609C422.505 217.772 397.524 248.711 370.738 281.887L370.686 281.951C369.31 283.655 367.929 285.366 366.543 287.083C366.796 284.746 370.804 277.605 377.335 267.962C388.684 251.205 399.681 234.659 404.68 226.865C412.366 219.742 419.621 207.773 421.451 204.754C421.56 204.574 421.65 204.426 421.72 204.312C421.947 203.942 422.414 203.33 423.015 202.54C426.26 198.286 433.42 188.897 427.909 184.708C423.54 181.387 422.651 183.524 421.266 186.855C420.58 188.505 419.773 190.447 418.36 192.164C417.166 193.616 416.365 194.647 415.779 195.4C414.908 196.521 414.514 197.028 414.015 197.393C413.601 197.694 413.115 197.898 412.228 198.27L412.226 198.271C411.688 198.497 411.002 198.785 410.094 199.194C406.962 200.606 405.262 202.539 403.409 205.396C401.465 201.205 399.308 198.269 398.001 199.501C390.54 208.732 386.488 215.816 381.497 224.543C376.453 233.361 370.45 243.857 359.001 259.94C349.343 273.507 341.834 286.202 333.218 300.77C326.071 312.855 318.161 326.228 307.63 342.456C296.469 359.656 290.008 369.672 286.322 375.638C266.812 351.197 246.903 326.991 226.909 302.683L226.906 302.68L226.9 302.673L226.899 302.671L226.897 302.669C194.16 262.868 161.198 222.794 129.403 180.971H123.658C116.725 207.529 109.404 234.031 101.803 260.5C95.8744 281.146 84 292.891 73.5 300C45 319.296 0 333 0 333C0 333 37 342.565 55.5 353.5C69.0342 361.5 69.636 367.991 64.9768 382.985C56.8874 409.019 48.6882 435.052 40.4825 461.106L40.4813 461.11L40.4805 461.112L40.4801 461.113L40.4789 461.117L40.4777 461.121L40.4598 461.178L40.4583 461.183C36.9275 470.852 28.1147 477.776 21.5198 482.958C16.9857 486.52 13.5 489.259 13.5 491.5C32 490 49.5 490 70.5 490C93.5 490 108 491.5 135 495.715C134.113 491.886 127.963 488.647 121.45 485.216C113.989 481.287 106.051 477.106 105 471.5C103.618 464.129 104.176 460.946 104.817 457.296C105.089 455.747 105.376 454.114 105.535 452.04C106.07 445.08 122.337 379.47 133.096 343.883C162.746 369.728 170.805 379.692 192.173 406.109C194.878 409.453 197.797 413.062 201 417C217.575 437.378 228.515 452.564 238.499 466.422C245.682 476.393 252.37 485.677 260.307 495.715H266.052C273.983 485.215 281.748 474.449 289.666 463.472C303.566 444.201 317.936 424.279 334.5 404C355.068 378.819 366.562 366.255 381.603 349.815L381.605 349.813C385.576 345.472 389.795 340.861 394.494 335.675Z" fill="white"/>
</svg>
