<svg width="158" height="43" viewBox="0 0 158 43" fill="none" xmlns="http://www.w3.org/2000/svg">
<path d="M21.4607 0C9.607 0 0 9.60929 0 21.4607C0 33.3143 9.607 42.9213 21.4607 42.9213C33.3121 42.9213 42.9213 33.3143 42.9213 21.4607C42.9213 9.60929 33.3121 0 21.4607 0ZM28.0279 28.1778H14.8935C13.1538 28.1778 12.0665 26.2951 12.9352 24.7889L19.5047 13.4136C20.3734 11.9098 22.5468 11.9098 23.4155 13.4136L29.9827 24.7889C30.8525 26.2951 29.7664 28.1778 28.0279 28.1778Z" fill="black"/>
<path d="M50.2789 21.4848C50.2789 14.6109 54.461 9.85205 61.2868 9.85205C67.2474 9.85205 71.093 13.1208 71.6217 18.0719H67.4397C66.8629 15.1397 64.7478 13.6015 61.2387 13.6015C57.0086 13.6015 54.4129 16.5337 54.4129 21.4848C54.4129 26.3879 57.0086 29.3682 61.2387 29.3682C64.7478 29.3682 66.8629 27.83 67.4397 25.042H71.6217C71.093 29.897 67.2474 33.1176 61.2868 33.1176C54.461 33.1176 50.2789 28.3588 50.2789 21.4848Z" fill="black"/>
<path d="M75.9182 32.5406V10.3807H80.1003V15.428C80.9655 11.6785 83.8016 10.0442 86.5896 10.0442C87.3587 10.0442 88.0798 10.0923 88.6085 10.2365V14.082C87.8875 13.9378 87.3106 13.9378 86.5415 13.9378C82.1672 13.9378 80.1003 17.9276 80.1003 22.8787V32.5406H75.9182Z" fill="black"/>
<path d="M111.437 22.6865H94.2761C94.3722 26.9647 97.016 29.4643 101.246 29.4643C104.178 29.4643 106.197 28.3107 107.111 26.1956H111.293C110.523 30.2815 106.438 33.1176 101.246 33.1176C94.4203 33.1176 90.1421 28.5991 90.1421 21.4367C90.1421 14.4186 94.4683 9.80396 101.054 9.80396C107.303 9.80396 111.533 14.1302 111.533 20.235C111.533 21.0522 111.533 21.6771 111.437 22.6865ZM107.447 19.4659C107.447 15.5723 105.044 13.1688 101.006 13.1688C96.9679 13.1688 94.4683 15.7165 94.2761 19.4659H107.447Z" fill="black"/>
<path d="M114.33 25.9072H118.464C118.464 28.0703 120.483 29.7527 123.752 29.7527C126.203 29.7527 127.838 28.551 127.838 26.5802C127.838 25.09 127.165 24.0806 124.521 23.4076L120.002 22.2539C116.734 21.3406 115.003 19.2255 115.003 16.1491C115.003 12.3997 118.464 9.80396 123.271 9.80396C128.559 9.80396 131.779 12.3516 131.779 16.4856H127.693C127.693 14.3705 126.011 13.0246 123.127 13.0246C120.819 13.0246 119.137 14.1302 119.137 15.9568C119.137 17.3508 119.954 18.3603 122.358 19.0333L126.924 20.2831C130.193 21.1964 132.068 23.3595 132.068 26.4359C132.068 30.666 128.751 33.1176 123.511 33.1176C118.079 33.1176 114.33 29.9931 114.33 25.9072Z" fill="black"/>
<path d="M134.927 21.4848C134.927 14.9954 139.253 9.80396 146.463 9.80396C153.626 9.80396 158 14.9954 158 21.4848C158 27.9261 153.626 33.1176 146.463 33.1176C139.253 33.1176 134.927 27.9261 134.927 21.4848ZM153.818 21.4848C153.818 17.0144 151.126 13.5534 146.463 13.5534C141.801 13.5534 139.061 17.0144 139.061 21.4848C139.061 25.9072 141.801 29.3682 146.463 29.3682C151.126 29.3682 153.818 25.9072 153.818 21.4848Z" fill="black"/>
</svg>
